<?xml version="1.0" encoding="UTF-8" ?>
<!DOCTYPE svg PUBLIC "-//W3C//DTD SVG 1.1//EN" "http://www.w3.org/Graphics/SVG/1.1/DTD/svg11.dtd">
<svg width="128pt" height="128pt" viewBox="0 0 128 128" version="1.1" xmlns="http://www.w3.org/2000/svg">
<g id="#e9e463ff">
<path fill="#e9e463" opacity="1.00" d=" M 35.93 3.28 C 44.69 4.60 53.40 6.27 62.16 7.57 C 71.09 6.44 79.95 4.64 88.86 3.30 C 88.77 9.23 88.82 15.15 88.80 21.08 C 79.94 17.54 71.22 13.49 62.25 10.31 C 53.41 13.73 44.77 17.69 35.92 21.08 C 35.92 15.14 35.88 9.21 35.93 3.28 Z" />
<path fill="#e9e463" opacity="1.00" d=" M 31.94 32.13 C 42.08 27.98 52.21 23.82 62.29 19.54 C 72.45 23.75 82.73 27.77 92.72 32.33 C 96.84 41.06 100.22 50.18 103.95 59.10 C 106.58 62.30 104.28 65.73 102.91 68.90 C 101.31 72.92 99.65 76.92 97.94 80.89 C 95.49 85.11 95.30 91.57 90.94 94.01 C 88.60 95.00 86.26 95.99 83.90 96.92 C 82.26 97.65 80.60 98.33 78.92 98.98 C 74.93 100.69 70.93 102.37 66.89 103.95 C 65.10 104.64 63.22 106.21 61.21 105.39 C 51.92 101.45 42.54 97.70 33.23 93.78 C 32.26 93.50 31.64 92.88 31.36 91.92 C 27.33 82.20 23.36 72.46 19.23 62.78 C 23.52 52.58 27.67 42.33 31.94 32.13 M 41.60 42.79 C 42.21 49.83 42.43 56.90 43.13 63.93 C 41.00 66.11 38.84 68.26 36.66 70.40 C 39.46 73.76 42.24 77.14 44.98 80.56 C 47.11 79.59 49.25 78.65 51.36 77.64 C 52.14 80.85 52.36 84.19 53.42 87.33 C 59.49 89.58 65.52 89.61 71.58 87.27 C 72.41 84.12 72.85 80.88 73.47 77.69 C 75.61 78.66 77.68 79.81 79.94 80.46 C 82.89 77.09 85.61 73.52 88.49 70.09 C 85.79 68.34 83.56 65.90 81.65 63.33 C 82.80 56.54 82.53 49.58 83.37 42.74 C 76.23 40.54 69.25 37.50 62.03 35.73 C 55.20 38.04 48.41 40.44 41.60 42.79 Z" />
<path fill="#e9e463" opacity="1.00" d=" M 48.52 61.63 C 52.53 59.82 57.43 63.60 56.49 67.95 C 56.07 72.12 50.61 74.28 47.39 71.69 C 43.79 69.30 44.53 63.22 48.52 61.63 Z" />
<path fill="#e9e463" opacity="1.00" d=" M 71.59 61.71 C 75.24 60.00 80.04 62.87 79.78 67.00 C 80.18 71.67 73.93 74.58 70.49 71.56 C 67.15 69.09 67.85 63.43 71.59 61.71 Z" />
<path fill="#e9e463" opacity="1.00" d=" M 58.42 78.13 C 59.81 76.11 61.15 74.04 62.57 72.04 C 63.78 74.07 65.04 76.06 66.36 78.03 C 65.86 78.31 64.86 78.88 64.37 79.17 C 63.66 78.14 62.93 77.13 62.19 76.14 C 61.84 76.88 61.15 78.37 60.81 79.11 C 60.21 78.87 59.01 78.38 58.42 78.13 Z" />
<path fill="#e9e463" opacity="1.00" d=" M 36.10 104.40 C 43.64 107.74 51.34 110.71 58.89 114.02 C 61.92 116.31 65.12 114.40 68.09 113.11 C 69.75 112.37 71.42 111.69 73.13 111.08 C 74.74 110.27 76.41 109.62 78.10 109.00 C 80.40 107.95 82.73 106.96 85.13 106.15 C 86.31 105.60 87.46 104.98 88.56 104.28 C 88.90 110.22 88.58 116.17 88.72 122.12 C 86.54 121.68 84.32 121.47 82.17 120.93 C 80.15 120.64 78.12 120.41 76.14 119.91 C 74.13 119.63 72.10 119.42 70.13 118.91 C 68.10 118.61 66.02 118.55 64.09 117.81 C 60.97 117.54 57.97 118.62 54.89 118.93 C 48.66 120.11 42.38 120.98 36.16 122.16 C 36.15 116.24 36.20 110.32 36.10 104.40 Z" />
</g>
</svg>


