<?xml version="1.0" encoding="UTF-8" ?>
<!DOCTYPE svg PUBLIC "-//W3C//DTD SVG 1.1//EN" "http://www.w3.org/Graphics/SVG/1.1/DTD/svg11.dtd">
<svg width="104pt" height="119pt" viewBox="0 0 104 119" version="1.1" xmlns="http://www.w3.org/2000/svg">
<g id="#ffff5dff">
<path fill="#ffff5d" opacity="1.00" d=" M 0.00 0.00 L 104.00 0.00 L 104.00 102.85 C 69.33 102.86 34.67 102.83 0.00 102.86 L 0.00 0.00 M 26.60 9.67 C 26.76 36.78 26.98 63.89 26.95 91.00 C 29.45 92.98 33.74 93.52 35.96 90.88 C 36.28 81.94 36.34 72.98 36.64 64.03 C 36.68 61.42 39.73 60.17 41.99 60.48 C 47.74 60.73 53.53 60.41 59.25 61.05 C 61.42 71.21 64.53 81.14 66.85 91.27 C 70.95 91.77 75.08 91.33 79.19 91.26 C 79.55 88.40 78.04 85.82 77.18 83.19 C 74.22 75.42 71.57 67.52 68.37 59.84 C 70.11 58.45 72.59 58.02 73.87 56.08 C 76.65 52.21 79.61 47.99 79.61 43.02 C 80.24 33.82 80.88 23.95 76.65 15.44 C 73.85 12.49 70.21 9.64 65.91 9.81 C 52.81 9.52 39.70 9.80 26.60 9.67 Z" />
<path fill="#ffff5d" opacity="1.00" d=" M 37.67 21.19 C 47.23 21.22 56.79 21.22 66.36 21.19 C 66.34 30.06 66.34 38.93 66.36 47.80 C 56.80 47.76 47.24 47.77 37.69 47.80 C 37.68 38.93 37.72 30.06 37.67 21.19 Z" />
<path fill="#ffff5d" opacity="1.00" d=" M 0.00 109.00 C 34.67 109.00 69.33 109.00 104.00 109.00 L 104.00 119.00 L 0.00 119.00 L 0.00 109.00 Z" />
</g>
<g id="#000000ff">
<path fill="#000000" opacity="1.00" d=" M 26.60 9.67 C 39.70 9.80 52.81 9.52 65.91 9.81 C 70.21 9.64 73.85 12.49 76.65 15.44 C 80.88 23.95 80.24 33.82 79.61 43.02 C 79.61 47.99 76.65 52.21 73.87 56.08 C 72.59 58.02 70.11 58.45 68.37 59.84 C 71.57 67.52 74.22 75.42 77.18 83.19 C 78.04 85.82 79.55 88.40 79.19 91.26 C 75.08 91.33 70.95 91.77 66.85 91.27 C 64.53 81.14 61.42 71.21 59.25 61.05 C 53.53 60.41 47.74 60.73 41.99 60.48 C 39.73 60.17 36.68 61.42 36.64 64.03 C 36.34 72.98 36.28 81.94 35.96 90.88 C 33.74 93.52 29.45 92.98 26.95 91.00 C 26.98 63.89 26.76 36.78 26.60 9.67 M 37.67 21.19 C 37.72 30.06 37.68 38.93 37.69 47.80 C 47.24 47.77 56.80 47.76 66.36 47.80 C 66.34 38.93 66.34 30.06 66.36 21.19 C 56.79 21.22 47.23 21.22 37.67 21.19 Z" />
</g>
</svg>
