<?xml version="1.0" encoding="UTF-8" ?>
<!DOCTYPE svg PUBLIC "-//W3C//DTD SVG 1.1//EN" "http://www.w3.org/Graphics/SVG/1.1/DTD/svg11.dtd">
<svg width="265pt" height="262pt" viewBox="0 0 265 262" version="1.1" xmlns="http://www.w3.org/2000/svg">
<g id="#ff8129ff">
<path fill="#ff8129" opacity="1.00" d=" M 2.00 0.00 L 264.00 0.00 C 264.00 87.33 264.00 174.67 264.00 262.00 L 151.00 262.00 C 151.00 212.00 151.00 162.00 151.00 112.00 C 101.33 112.00 51.67 112.00 2.00 112.00 C 2.00 74.67 2.00 37.33 2.00 0.00 Z" />
<path fill="#ff8129" opacity="1.00" d=" M 2.00 150.00 C 39.00 150.00 76.00 150.00 113.00 150.00 C 113.00 187.00 113.00 224.00 113.00 261.00 C 94.33 261.00 75.67 261.00 57.00 261.00 L 57.00 262.00 L 2.00 262.00 C 2.00 224.67 2.00 187.33 2.00 150.00 Z" />
</g>
</svg>
