<?xml version="1.0" encoding="UTF-8" ?>
<!DOCTYPE svg PUBLIC "-//W3C//DTD SVG 1.1//EN" "http://www.w3.org/Graphics/SVG/1.1/DTD/svg11.dtd">
<svg width="265pt" height="262pt" viewBox="0 0 265 262" version="1.1" xmlns="http://www.w3.org/2000/svg">
<g id="#ff5ac8ff">
<path fill="#ff5ac8" opacity="1.00" d=" M 2.00 0.00 L 114.00 0.00 C 114.00 37.33 114.00 74.67 114.00 112.00 C 76.67 112.00 39.33 112.00 2.00 112.00 C 2.00 74.67 2.00 37.33 2.00 0.00 Z" />
<path fill="#ff5ac8" opacity="1.00" d=" M 151.00 0.00 L 264.00 0.00 C 264.00 37.33 264.00 74.67 264.00 112.00 C 226.33 112.00 188.67 112.00 151.00 112.00 C 151.00 74.67 151.00 37.33 151.00 0.00 Z" />
<path fill="#ff5ac8" opacity="1.00" d=" M 2.00 150.00 C 39.33 150.00 76.67 150.00 114.00 150.00 C 114.00 187.33 114.00 224.67 114.00 262.00 L 2.00 262.00 C 2.00 224.67 2.00 187.33 2.00 150.00 Z" />
<path fill="#ff5ac8" opacity="1.00" d=" M 151.00 150.00 C 188.67 150.00 226.33 150.00 264.00 150.00 C 264.00 187.33 264.00 224.67 264.00 262.00 L 151.00 262.00 C 151.00 224.67 151.00 187.33 151.00 150.00 Z" />
</g>
</svg>
