<?xml version="1.0" encoding="UTF-8" ?>
<!DOCTYPE svg PUBLIC "-//W3C//DTD SVG 1.1//EN" "http://www.w3.org/Graphics/SVG/1.1/DTD/svg11.dtd">
<svg width="104pt" height="119pt" viewBox="0 0 104 119" version="1.1" xmlns="http://www.w3.org/2000/svg">
<g id="#80e2ffff">
<path fill="#80e2ff" opacity="1.00" d=" M 0.00 0.00 L 104.00 0.00 L 104.00 103.00 C 69.33 103.00 34.67 103.00 0.00 103.00 L 0.00 0.00 M 40.05 6.33 L 40.06 7.00 C 31.77 15.04 23.73 23.34 15.35 31.28 C 14.83 40.50 15.16 49.74 15.04 58.97 C 26.31 59.12 37.58 58.87 48.86 58.76 C 49.00 52.44 48.99 46.12 49.04 39.80 C 55.95 39.57 62.86 39.62 69.78 39.74 C 70.05 28.52 70.02 17.30 69.89 6.09 C 59.94 6.05 49.99 5.81 40.05 6.33 M 56.05 42.78 C 56.03 49.11 56.11 55.44 55.90 61.77 C 49.15 61.53 42.39 61.61 35.63 61.56 C 34.75 72.64 35.02 83.79 35.01 94.90 C 44.58 94.97 54.16 95.17 63.72 94.72 C 72.09 86.07 80.92 77.90 89.53 69.50 C 90.31 60.64 89.78 51.73 89.95 42.85 C 78.66 42.45 67.35 42.58 56.05 42.78 Z" />
<path fill="#80e2ff" opacity="1.00" d=" M 0.00 109.00 C 34.67 109.00 69.33 109.00 104.00 109.00 L 104.00 119.00 L 0.00 119.00 L 0.00 109.00 Z" />
</g>
<g id="#000000ff">
<path fill="#000000" opacity="1.00" d=" M 40.05 6.33 C 49.99 5.81 59.94 6.05 69.89 6.09 C 70.02 17.30 70.05 28.52 69.78 39.74 C 62.86 39.62 55.95 39.57 49.04 39.80 C 48.99 46.12 49.00 52.44 48.86 58.76 C 37.58 58.87 26.31 59.12 15.04 58.97 C 15.16 49.74 14.83 40.50 15.35 31.28 C 23.73 23.34 31.77 15.04 40.06 7.00 L 40.05 6.33 Z" />
<path fill="#000000" opacity="1.00" d=" M 56.05 42.78 C 67.35 42.58 78.66 42.45 89.95 42.85 C 89.78 51.73 90.31 60.64 89.53 69.50 C 80.92 77.90 72.09 86.07 63.72 94.72 C 54.16 95.17 44.58 94.97 35.01 94.90 C 35.02 83.79 34.75 72.64 35.63 61.56 C 42.39 61.61 49.15 61.53 55.90 61.77 C 56.11 55.44 56.03 49.11 56.05 42.78 Z" />
</g>
</svg>
