<?xml version="1.0" encoding="UTF-8" ?>
<!DOCTYPE svg PUBLIC "-//W3C//DTD SVG 1.1//EN" "http://www.w3.org/Graphics/SVG/1.1/DTD/svg11.dtd">
<svg width="894pt" height="894pt" viewBox="0 0 894 894" version="1.1" xmlns="http://www.w3.org/2000/svg">
<g id="#ffffffff">
<path fill="#ffffff" opacity="1.00" d=" M 426.38 0.00 L 447.00 0.00 C 447.05 39.99 446.90 79.98 447.06 119.97 C 480.38 120.08 513.70 119.91 547.02 120.03 C 558.09 121.72 567.47 131.48 566.96 142.99 C 567.10 235.98 566.88 328.98 567.06 421.97 C 617.71 422.06 668.36 421.95 719.01 422.02 C 734.20 424.86 741.98 445.42 730.98 456.98 C 643.78 559.10 556.50 661.16 469.28 763.27 C 464.36 770.57 456.45 777.25 447.03 776.02 C 446.92 727.33 447.08 678.64 446.96 629.96 C 435.91 631.63 433.63 647.77 422.05 648.99 C 414.81 645.25 405.01 638.64 407.30 629.27 C 419.13 612.61 427.96 593.83 441.21 578.21 C 443.22 574.91 449.90 575.99 446.98 570.00 C 446.98 420.33 447.08 270.66 446.94 120.99 C 436.72 120.09 427.63 125.52 418.08 128.13 C 344.59 152.69 270.75 176.47 197.30 201.39 C 188.61 204.50 189.38 214.85 190.39 222.33 C 195.08 295.64 200.98 368.96 204.40 442.33 C 204.70 449.64 207.87 458.45 202.77 464.78 C 180.80 486.20 161.25 509.81 138.73 530.73 C 134.81 536.75 128.14 546.10 134.31 552.73 C 162.14 586.85 191.05 620.03 218.79 654.21 C 224.80 660.10 229.64 670.42 239.94 667.88 C 259.66 661.22 277.94 650.61 298.05 645.03 C 303.12 644.00 306.76 648.61 307.91 653.04 C 314.44 677.24 321.89 701.17 328.58 725.23 C 332.13 733.38 331.76 746.27 342.67 748.44 C 377.56 757.48 411.58 770.23 446.93 777.12 C 447.10 816.07 446.95 855.04 447.00 894.00 L 426.38 894.00 C 321.57 888.65 217.98 846.06 141.77 773.23 C 56.53 695.45 5.83 582.20 0.00 467.60 L 0.00 426.40 C 5.83 311.80 56.53 198.55 141.77 120.77 C 217.98 47.94 321.57 5.35 426.38 0.00 Z" />
<path fill="#ffffff" opacity="1.00" d=" M 298.31 437.44 C 323.49 434.20 350.37 446.87 362.81 469.20 C 377.28 495.05 375.70 531.88 351.77 551.77 C 321.08 582.83 261.14 570.51 245.89 529.05 C 227.89 490.79 257.69 442.80 298.31 437.44 Z" />
</g>
<g id="#060709ff">
</g>
</svg>
