<?xml version="1.0" encoding="UTF-8" ?>
<!DOCTYPE svg PUBLIC "-//W3C//DTD SVG 1.1//EN" "http://www.w3.org/Graphics/SVG/1.1/DTD/svg11.dtd">
<svg width="376pt" height="471pt" viewBox="0 0 376 471" version="1.1" xmlns="http://www.w3.org/2000/svg">
<g id="#ffffffff">
<path fill="#ffffff" opacity="1.00" d=" M 90.86 29.91 C 127.24 8.98 170.08 -4.42 212.27 2.83 C 254.01 10.32 293.79 30.19 324.41 59.59 C 338.65 73.88 351.53 91.50 353.61 112.15 C 354.94 142.14 353.80 172.21 354.20 202.22 C 360.97 202.51 367.76 202.38 374.54 202.46 C 374.79 256.26 374.51 310.07 374.68 363.87 C 367.83 363.87 360.99 363.75 354.15 364.02 C 354.21 370.60 354.33 377.19 353.91 383.76 C 299.18 412.99 243.87 441.19 189.47 471.00 L 186.55 471.00 C 132.13 441.21 76.83 412.98 22.09 383.76 C 21.67 377.18 21.79 370.59 21.85 364.01 C 15.01 363.75 8.16 363.88 1.32 363.87 C 1.49 310.07 1.21 256.26 1.46 202.46 C 8.24 202.38 15.03 202.51 21.80 202.22 C 21.82 177.15 21.83 152.08 21.79 127.00 C 18.84 82.81 56.37 50.50 90.86 29.91 M 184.36 74.40 C 171.49 75.72 160.37 86.98 159.86 99.98 C 158.51 114.93 172.02 129.15 187.00 128.86 C 205.99 130.78 222.17 109.25 214.34 91.65 C 209.69 79.95 196.80 72.65 184.36 74.40 M 171.45 169.35 C 131.29 174.69 91.33 181.45 51.22 187.14 C 51.39 211.56 50.59 236.11 51.60 260.45 C 67.74 274.44 84.62 287.68 101.03 301.39 C 130.13 290.30 159.04 278.67 188.00 267.21 C 216.94 278.71 245.87 290.26 274.95 301.41 C 291.55 287.85 307.96 274.05 324.70 260.67 C 324.99 236.17 324.82 211.65 324.79 187.15 C 284.67 181.44 244.70 174.70 204.55 169.34 C 198.10 161.64 194.06 152.27 188.00 144.28 C 181.93 152.26 177.89 161.63 171.45 169.35 Z" />
<path fill="#ffffff" opacity="1.00" d=" M 184.37 88.38 C 192.68 85.84 203.14 93.01 201.87 102.01 C 202.34 112.55 188.28 119.28 180.14 112.84 C 170.13 107.27 173.13 90.40 184.37 88.38 Z" />
</g>
</svg>
