<?xml version="1.0" encoding="UTF-8" ?>
<!DOCTYPE svg PUBLIC "-//W3C//DTD SVG 1.1//EN" "http://www.w3.org/Graphics/SVG/1.1/DTD/svg11.dtd">
<svg width="348pt" height="337pt" viewBox="0 0 348 337" version="1.1" xmlns="http://www.w3.org/2000/svg">
<g id="#ffffffff">
<path fill="#ffffff" opacity="1.00" d=" M 138.82 8.43 C 185.40 -7.37 239.64 11.94 269.52 50.47 C 292.11 77.70 298.46 113.53 295.44 148.03 C 292.88 163.94 312.70 157.17 321.99 158.46 C 330.22 156.98 328.52 166.92 327.75 172.01 C 327.39 196.00 327.63 220.01 327.63 244.00 C 328.34 250.48 330.01 259.22 322.91 262.87 C 298.30 278.56 275.23 296.98 249.31 310.22 C 247.60 291.81 248.80 272.88 247.34 254.76 C 239.95 252.79 228.23 251.88 221.22 255.33 C 219.22 279.69 221.52 304.61 220.15 329.11 C 217.34 336.61 207.26 333.91 201.00 334.45 C 176.47 333.36 151.25 336.57 127.17 332.80 C 124.34 307.35 129.21 279.70 124.75 254.30 C 116.74 254.38 96.51 247.77 98.45 262.04 C 99.23 278.53 96.96 294.89 97.44 311.37 C 75.08 298.12 54.31 282.42 32.19 268.76 C 27.71 263.77 18.21 262.16 18.51 254.09 C 18.80 222.72 18.03 191.27 18.88 159.94 C 28.19 155.61 40.40 161.47 49.81 156.92 C 54.98 137.38 46.50 115.82 54.83 96.92 C 64.01 55.25 98.77 20.17 138.82 8.43 M 94.39 130.55 C 79.78 130.87 72.82 146.92 70.03 159.13 C 65.37 171.55 68.24 184.95 69.28 197.72 C 69.74 205.10 77.46 206.42 82.93 208.93 C 98.24 217.06 113.95 224.43 129.34 232.48 C 144.54 231.94 140.99 203.03 158.00 206.50 C 170.65 206.77 183.31 206.29 195.95 206.67 C 205.43 212.34 205.12 230.10 215.91 232.69 C 229.74 225.21 244.59 218.39 259.38 212.43 C 266.34 208.31 277.31 206.67 277.66 196.63 C 278.29 185.88 280.80 174.78 278.64 164.10 C 273.75 151.32 269.69 132.68 253.47 130.63 C 200.46 130.32 147.41 130.50 94.39 130.55 Z" />
</g>
</svg>
