<?xml version="1.0" encoding="UTF-8" ?>
<!DOCTYPE svg PUBLIC "-//W3C//DTD SVG 1.1//EN" "http://www.w3.org/Graphics/SVG/1.1/DTD/svg11.dtd">
<svg width="600pt" height="520pt" viewBox="0 0 600 520" version="1.1" xmlns="http://www.w3.org/2000/svg">
<g id="#70136eff">
<path fill="#70136e" opacity="1.00" d=" M 21.46 11.38 C 113.49 9.37 205.84 11.09 298.00 10.51 C 364.69 8.59 435.42 23.98 487.84 67.17 C 499.49 76.06 507.30 94.32 497.05 107.06 C 484.27 122.25 459.88 117.70 446.87 105.13 C 421.80 76.31 384.18 62.57 347.93 54.14 C 304.42 44.46 257.96 48.46 216.93 65.94 C 159.64 90.39 114.27 141.22 97.22 201.22 C 85.72 239.26 87.55 279.97 95.28 318.53 C 96.35 335.03 83.53 349.96 68.74 355.71 C 50.79 362.24 30.12 350.33 24.41 332.64 C 15.25 304.36 10.84 274.63 9.70 244.97 C 9.26 172.96 9.67 100.94 9.49 28.94 C 9.14 21.28 13.81 13.36 21.46 11.38 Z" />
<path fill="#70136e" opacity="1.00" d=" M 525.35 144.36 C 543.66 140.98 562.19 153.35 568.65 170.34 C 582.95 205.00 589.31 242.65 590.35 280.02 C 590.67 350.36 590.38 420.72 590.50 491.06 C 591.14 500.80 582.98 509.85 573.07 509.47 C 483.39 509.50 393.69 509.47 304.00 509.48 C 232.08 512.17 156.09 493.19 101.35 444.67 C 88.97 434.13 77.63 416.53 86.26 400.25 C 96.16 381.77 123.42 383.46 136.47 397.54 C 168.22 442.12 223.76 463.11 276.34 469.70 C 347.51 478.11 421.53 447.04 465.48 390.47 C 511.36 334.31 521.41 255.03 500.27 186.82 C 494.54 168.98 506.82 147.78 525.35 144.36 Z" />
</g>
<g id="#a65da6ff">
<path fill="#a65da6" opacity="1.00" d=" M 282.37 102.42 C 346.09 94.55 411.90 130.02 440.72 187.30 C 460.17 225.10 464.08 270.87 450.09 311.14 C 430.44 370.23 373.33 414.49 311.06 418.18 C 246.72 423.72 182.10 384.96 155.80 326.17 C 138.66 288.71 136.45 244.45 150.81 205.74 C 170.61 150.10 223.68 108.59 282.37 102.42 M 288.37 167.45 C 261.58 170.82 236.48 186.15 221.85 208.92 C 200.93 239.55 201.87 282.73 223.10 312.94 C 240.39 338.50 271.13 354.33 302.01 353.23 C 337.53 352.86 371.44 330.01 385.41 297.40 C 398.91 267.46 394.40 230.51 374.66 204.36 C 355.37 177.65 320.97 163.13 288.37 167.45 Z" />
</g>
</svg>
