<?xml version="1.0" encoding="UTF-8" ?>
<!DOCTYPE svg PUBLIC "-//W3C//DTD SVG 1.1//EN" "http://www.w3.org/Graphics/SVG/1.1/DTD/svg11.dtd">
<svg width="1000pt" height="1000pt" viewBox="0 0 1000 1000" version="1.1" xmlns="http://www.w3.org/2000/svg">
<g id="#ffffffff">
<path fill="#ffffff" opacity="1.00" d=" M 473.49 204.34 C 480.24 201.69 487.05 199.15 493.87 196.66 C 493.89 225.14 493.87 253.62 493.87 282.10 C 487.41 282.34 480.95 282.74 474.52 283.45 C 474.49 271.50 474.48 259.54 474.52 247.59 C 473.17 246.98 471.83 246.37 470.48 245.78 C 471.36 231.96 472.53 218.15 473.49 204.34 Z" />
<path fill="#ffffff" opacity="1.00" d=" M 505.38 196.75 C 512.26 199.03 518.98 201.76 525.76 204.31 C 526.70 218.00 527.97 231.66 528.74 245.36 C 527.47 246.02 526.22 246.69 524.96 247.34 C 524.75 259.36 524.94 271.39 524.86 283.42 C 518.38 282.74 511.86 282.42 505.36 282.02 C 505.40 253.59 505.36 225.17 505.38 196.75 Z" />
<path fill="#ffffff" opacity="1.00" d=" M 442.37 245.28 C 449.16 244.21 455.94 243.09 462.74 242.08 C 462.76 256.40 462.74 270.73 462.75 285.05 C 454.23 286.58 445.83 288.70 437.53 291.15 C 439.09 275.85 440.75 260.57 442.37 245.28 Z" />
<path fill="#ffffff" opacity="1.00" d=" M 535.26 242.08 C 542.06 243.09 548.84 244.21 555.63 245.28 C 557.25 260.57 558.91 275.85 560.47 291.15 C 552.17 288.70 543.77 286.57 535.25 285.06 C 535.26 270.73 535.24 256.40 535.26 242.08 Z" />
<path fill="#ffffff" opacity="1.00" d=" M 483.44 292.64 C 580.71 283.07 677.83 350.14 704.13 444.07 C 716.73 486.59 715.74 533.04 701.18 574.94 C 681.16 633.27 634.36 681.61 576.77 703.62 C 515.20 727.61 442.50 720.91 386.73 685.29 C 332.91 651.69 295.39 593.11 288.54 529.91 C 283.50 486.90 291.65 442.34 312.30 404.21 C 345.67 341.30 412.23 297.36 483.44 292.64 M 468.02 300.14 L 468.91 301.91 L 467.18 301.25 L 467.73 302.57 C 465.86 303.66 462.17 304.00 462.87 306.94 C 469.12 304.07 472.20 307.44 476.80 306.34 C 477.67 306.77 478.54 307.19 479.42 307.61 C 479.85 307.99 480.72 308.74 481.16 309.12 C 480.02 310.27 478.90 311.45 477.77 312.62 C 477.15 312.58 476.53 312.55 475.92 312.53 C 474.66 313.65 473.08 314.01 471.44 314.01 C 471.80 314.68 472.52 316.02 472.87 316.69 C 475.12 314.73 481.02 313.22 482.12 316.47 C 482.49 316.48 483.23 316.52 483.60 316.54 C 483.18 318.51 479.64 318.17 478.10 319.30 C 476.63 318.32 473.59 318.31 473.06 320.34 C 476.35 319.77 478.63 322.35 481.75 322.59 C 481.64 322.96 481.43 323.69 481.32 324.05 C 480.13 324.26 478.95 324.45 477.77 324.64 C 476.10 328.69 471.65 329.25 468.65 331.84 C 459.47 331.98 444.78 333.99 439.85 339.30 C 438.91 339.39 437.97 339.50 437.05 339.61 C 436.45 340.90 435.85 342.19 435.29 343.51 C 433.06 342.44 432.78 344.10 432.66 345.95 C 431.45 346.06 430.24 346.16 429.03 346.25 C 429.10 346.74 429.23 347.71 429.29 348.20 C 427.26 345.83 426.82 348.93 425.86 349.96 C 421.51 350.24 417.04 358.37 414.55 354.61 C 412.62 355.99 410.78 357.93 410.37 360.38 C 408.80 362.09 405.92 361.15 404.73 363.01 C 405.54 362.84 407.17 362.48 407.99 362.31 C 408.18 362.36 408.57 362.46 408.77 362.51 L 410.46 362.31 C 411.47 364.95 409.31 365.54 407.42 366.21 C 405.51 368.42 402.78 369.87 402.01 372.91 C 403.05 373.34 403.94 374.04 404.71 374.87 C 405.04 374.40 405.69 373.45 406.01 372.97 C 407.06 373.37 408.10 373.76 409.15 374.17 C 407.54 375.33 405.93 376.48 404.39 377.73 C 404.12 377.37 403.57 376.65 403.29 376.29 C 401.80 376.68 399.47 375.53 398.83 377.50 C 402.17 376.90 402.31 379.97 405.83 378.66 C 406.51 377.84 407.20 377.02 407.90 376.21 C 409.27 376.50 410.70 376.77 411.93 375.86 C 412.53 376.32 413.71 377.24 414.31 377.70 C 417.02 377.38 419.76 377.35 422.49 377.20 C 421.90 378.84 421.32 380.48 420.74 382.13 C 416.50 379.29 413.65 377.13 408.67 381.17 C 407.85 380.75 407.03 380.35 406.20 379.95 C 405.90 380.54 405.30 381.71 405.00 382.30 C 403.29 382.23 401.76 383.00 400.27 383.71 C 401.14 383.88 402.87 384.23 403.74 384.40 C 401.54 386.50 398.34 386.67 395.59 387.63 C 395.90 390.25 399.91 387.94 401.63 389.64 C 402.33 389.32 403.74 388.69 404.45 388.37 C 404.42 390.49 403.34 392.19 402.04 393.74 C 400.78 393.71 399.54 393.67 398.29 393.62 C 397.34 394.29 396.39 394.96 395.42 395.62 C 393.57 395.18 392.47 394.16 392.13 392.53 L 393.79 392.85 C 393.10 392.85 391.73 392.85 391.04 392.85 L 392.91 390.38 C 390.55 389.83 388.22 389.25 385.79 389.27 C 387.19 390.55 388.69 391.79 390.79 391.32 C 390.35 391.61 389.49 392.20 389.05 392.50 C 392.40 394.86 394.68 398.50 398.04 400.93 C 398.49 401.55 398.94 402.18 399.41 402.82 C 399.78 402.51 400.53 401.89 400.91 401.58 L 400.05 400.44 C 402.65 401.13 403.52 398.45 404.50 396.68 C 404.40 393.88 404.50 391.07 404.75 388.28 C 406.35 387.73 407.46 386.84 406.70 385.07 C 407.44 384.63 408.92 383.77 409.66 383.34 C 409.87 383.82 410.30 384.80 410.51 385.28 C 410.77 384.59 411.28 383.22 411.54 382.53 C 413.63 382.74 415.73 382.91 417.84 383.06 C 418.55 383.99 419.25 384.93 419.96 385.88 C 419.47 386.26 418.48 387.02 417.99 387.40 C 416.58 386.51 413.42 385.32 412.89 387.69 C 413.73 387.48 414.57 387.28 415.42 387.09 C 421.82 387.95 417.50 397.64 412.17 397.36 C 411.42 398.46 410.70 399.57 409.98 400.69 C 410.37 400.95 411.16 401.47 411.55 401.72 C 416.26 395.56 427.69 392.99 428.98 385.69 C 429.41 384.34 429.62 382.94 429.79 381.55 C 431.38 382.62 432.56 385.81 434.98 382.99 C 434.36 383.75 433.13 385.27 432.52 386.02 C 433.69 385.13 436.74 385.50 436.31 383.33 C 437.28 383.43 438.17 383.17 438.97 382.57 C 438.32 382.58 437.01 382.62 436.36 382.64 C 435.71 379.59 438.49 379.74 440.60 379.51 C 441.58 377.95 443.79 379.02 445.04 377.73 C 446.27 380.48 448.95 378.63 451.00 378.01 C 465.95 372.16 481.96 369.17 498.00 368.87 C 497.99 356.21 498.01 343.56 497.99 330.91 C 497.22 330.38 496.45 329.84 495.70 329.30 C 496.28 329.30 497.43 329.30 498.00 329.29 C 497.99 327.20 498.00 325.10 497.99 323.01 C 496.50 322.15 495.06 321.19 493.93 319.89 C 491.23 319.76 488.58 319.11 486.31 317.60 C 488.28 316.14 491.99 316.29 492.48 313.36 C 494.42 313.97 496.51 314.42 498.01 315.91 C 497.98 309.98 498.02 304.04 497.99 298.11 C 487.96 297.49 477.49 300.15 468.02 300.14 M 501.01 298.12 C 501.06 305.15 500.82 312.19 501.21 319.22 C 502.62 316.36 505.71 314.87 508.82 316.12 C 507.42 314.74 507.38 312.79 507.22 310.98 C 513.98 312.42 521.06 311.79 527.72 310.07 C 530.91 313.71 536.74 311.73 540.75 314.12 C 540.79 313.41 540.88 311.98 540.93 311.27 C 541.04 311.96 541.27 313.35 541.38 314.04 C 543.02 313.16 544.82 312.69 546.76 312.64 C 546.30 312.34 545.39 311.75 544.93 311.45 C 546.28 311.13 547.14 310.31 547.52 308.97 C 548.35 309.23 549.18 309.50 550.02 309.78 C 550.79 309.19 551.57 308.61 552.35 308.03 C 556.21 309.89 559.91 307.65 563.50 309.70 C 564.02 309.40 565.06 308.82 565.58 308.52 C 544.70 302.04 522.94 297.97 501.01 298.12 M 403.77 321.82 C 404.75 321.79 406.71 321.72 407.69 321.69 L 407.53 323.38 C 406.08 322.99 404.61 322.65 403.14 322.36 C 399.97 324.28 395.68 325.21 393.82 328.68 C 395.24 327.45 397.31 327.70 398.69 326.42 L 399.36 326.78 C 400.70 325.56 402.46 325.63 404.15 325.63 L 404.37 327.15 C 404.46 326.74 404.65 325.93 404.75 325.52 C 407.33 325.68 409.88 325.17 412.40 324.65 C 413.08 324.04 414.45 322.84 415.13 322.23 C 414.93 322.79 414.55 323.91 414.36 324.46 C 414.96 324.50 416.17 324.57 416.77 324.61 C 416.45 324.09 415.79 323.05 415.46 322.53 C 420.40 322.79 425.17 320.21 430.22 320.23 C 435.72 318.06 441.19 316.03 447.21 315.94 C 443.25 313.64 450.48 311.37 452.71 311.20 C 452.60 311.87 452.38 313.20 452.27 313.87 C 453.61 312.22 455.17 310.75 456.87 309.47 C 456.36 309.37 455.35 309.17 454.84 309.08 L 456.54 306.66 C 455.04 307.36 453.58 308.13 452.15 308.96 C 451.95 307.52 453.00 306.73 453.98 305.93 C 455.23 306.19 456.50 306.44 457.74 306.76 C 460.79 304.79 463.87 302.87 466.85 300.82 C 444.83 304.15 423.50 311.54 403.77 321.82 M 538.12 315.26 C 536.48 316.54 534.53 317.20 532.60 317.87 C 536.65 317.56 540.62 316.75 544.76 317.36 C 543.97 318.26 543.09 319.05 542.10 319.73 C 546.45 320.95 550.83 321.83 555.38 321.31 C 555.71 320.93 556.36 320.18 556.68 319.81 C 558.05 321.11 564.53 322.02 561.10 323.61 L 562.46 323.23 C 570.58 333.62 585.98 335.16 598.00 340.65 C 597.55 340.02 596.65 338.76 596.19 338.13 C 596.73 337.85 597.79 337.29 598.32 337.01 C 595.56 335.62 591.39 334.30 593.56 330.40 C 591.72 329.95 589.87 329.62 587.99 329.45 C 592.40 328.62 596.50 327.05 599.83 323.95 C 590.62 318.49 580.64 314.28 570.63 310.47 C 561.88 319.57 549.10 314.90 538.12 315.26 M 599.87 323.87 C 599.49 326.86 603.15 327.02 605.28 326.90 C 603.50 325.84 601.68 324.86 599.87 323.87 M 501.00 324.86 C 501.00 339.52 501.00 354.19 501.00 368.85 C 516.29 369.12 531.70 371.50 546.02 376.99 L 545.20 375.55 C 546.43 375.36 547.57 374.93 548.63 374.25 C 548.03 373.87 546.81 373.10 546.21 372.72 C 546.14 372.00 546.00 370.57 545.93 369.85 C 549.06 370.26 547.15 367.27 547.10 365.62 C 545.64 365.44 544.18 365.26 542.73 365.10 C 542.99 364.60 543.51 363.60 543.77 363.10 C 541.61 359.76 545.05 359.51 547.74 359.65 C 548.53 358.53 549.36 357.44 550.17 356.33 C 548.52 356.35 546.88 356.40 545.25 356.46 C 546.49 354.12 542.98 353.47 543.90 351.14 C 541.88 351.05 540.82 349.00 538.87 350.82 C 537.80 350.74 536.73 350.68 535.66 350.64 C 535.21 348.17 528.72 343.47 532.69 343.42 C 532.43 342.12 532.03 340.87 531.50 339.67 C 528.96 338.96 526.61 337.78 524.62 336.05 C 524.99 334.54 525.36 333.04 525.74 331.55 C 521.43 332.49 518.08 327.98 513.61 329.75 C 514.41 329.55 516.00 329.14 516.80 328.94 C 515.85 327.84 514.82 326.83 513.70 325.92 C 513.53 326.80 513.17 328.55 513.00 329.42 C 509.07 327.55 504.47 327.70 501.00 324.86 M 595.91 330.00 C 602.39 331.71 609.13 330.36 615.29 333.56 C 610.30 328.36 602.30 326.09 595.91 330.00 M 594.31 330.26 C 594.39 333.55 597.41 328.73 594.31 330.26 M 654.35 369.49 C 657.86 373.58 662.01 379.56 665.79 381.73 C 662.49 377.31 659.62 371.74 654.35 369.49 M 450.93 381.30 C 451.64 382.76 451.53 385.74 453.80 385.56 C 455.37 387.20 455.19 389.50 454.49 391.50 C 454.39 392.24 454.19 393.71 454.09 394.44 C 452.39 394.85 450.86 394.13 449.45 393.29 C 446.83 394.83 444.40 392.35 441.71 392.64 C 441.72 392.28 441.74 391.56 441.75 391.20 L 440.32 391.76 L 440.50 390.78 C 439.74 390.38 439.05 389.90 438.44 389.32 C 438.37 392.99 435.16 390.80 433.24 389.93 C 423.74 395.63 414.81 402.31 406.92 410.11 C 410.12 413.30 413.30 416.49 416.50 419.69 C 416.49 419.16 416.45 418.12 416.43 417.60 C 417.81 417.57 419.07 417.02 420.27 416.39 C 423.64 412.00 429.15 408.62 430.41 402.80 C 427.44 402.23 427.43 395.89 430.99 398.29 C 431.04 397.62 431.13 396.27 431.17 395.60 C 432.09 396.86 432.97 398.17 434.07 399.31 C 433.93 398.56 433.65 397.04 433.52 396.29 C 434.26 395.24 435.01 394.20 435.75 393.15 C 437.58 393.94 439.62 394.65 440.46 396.66 C 441.57 396.60 442.68 396.55 443.81 396.54 C 443.83 395.94 443.87 394.75 443.89 394.16 C 445.66 394.42 447.54 394.61 448.94 395.87 C 449.41 395.66 450.34 395.23 450.80 395.02 C 453.55 396.17 455.74 398.23 458.19 399.87 C 458.68 399.57 459.66 398.96 460.15 398.66 C 460.09 399.32 459.96 400.66 459.90 401.32 C 462.49 397.88 466.35 402.97 460.82 402.47 C 461.83 402.78 462.84 403.09 463.86 403.38 C 464.21 403.63 464.90 404.14 465.24 404.39 C 465.40 405.04 465.72 406.35 465.88 407.00 C 465.20 407.01 463.85 407.04 463.17 407.06 C 463.85 408.38 464.48 409.72 465.13 411.07 C 466.42 410.09 467.90 409.96 469.15 411.15 C 467.84 412.26 466.88 414.28 464.85 413.83 C 464.22 415.04 463.12 415.48 461.53 415.15 C 461.90 415.51 462.62 416.22 462.98 416.58 C 458.01 421.23 453.34 427.66 454.19 433.98 L 452.20 431.85 C 451.45 432.75 451.07 433.72 451.68 434.79 C 451.13 434.98 450.04 435.37 449.49 435.56 C 449.27 436.09 448.84 437.16 448.63 437.69 C 447.99 437.71 446.72 437.76 446.08 437.79 C 445.07 438.56 444.41 439.54 444.09 440.73 C 443.64 440.58 442.74 440.29 442.29 440.14 C 443.63 441.80 442.80 443.81 442.28 445.62 C 446.12 449.16 449.74 452.93 453.40 456.65 C 465.30 445.21 481.44 438.30 497.97 437.87 C 498.04 415.90 497.98 393.94 498.00 371.97 C 481.90 372.20 465.92 375.47 450.93 381.30 M 501.00 371.98 C 501.00 393.93 501.00 415.88 501.00 437.83 C 513.52 438.16 526.20 441.64 536.53 448.86 C 536.85 446.83 537.38 443.53 539.71 443.09 C 539.59 442.26 539.36 440.60 539.24 439.77 C 539.44 440.33 539.85 441.46 540.06 442.02 C 540.52 442.30 541.46 442.86 541.92 443.14 C 542.28 440.29 545.07 438.61 544.88 435.65 C 545.44 435.69 546.56 435.77 547.12 435.81 C 547.72 433.72 545.38 433.44 544.08 432.62 C 542.08 433.85 540.98 433.64 540.78 431.97 C 546.04 431.85 550.23 427.15 555.82 428.52 C 555.20 427.49 554.59 426.47 554.00 425.46 C 552.41 425.18 551.07 425.61 549.96 426.73 C 548.25 425.49 546.58 424.22 544.90 422.96 C 544.80 422.35 544.62 421.13 544.52 420.53 C 542.73 418.39 540.12 416.66 539.63 413.72 C 540.07 414.01 540.95 414.59 541.39 414.87 C 542.15 414.52 542.91 414.17 543.69 413.85 C 548.17 417.41 553.61 420.38 559.06 421.98 C 560.34 423.72 561.59 425.48 562.88 427.22 C 562.55 428.45 562.22 429.68 561.93 430.93 C 563.12 430.07 564.31 429.20 565.52 428.36 C 565.11 423.24 558.30 421.74 559.01 417.37 C 560.72 418.01 562.45 418.71 564.26 419.09 C 563.25 417.64 561.73 416.83 560.11 416.27 C 558.43 417.18 557.07 418.48 556.56 420.39 C 554.10 418.38 551.66 415.96 548.20 416.30 C 547.59 414.84 546.91 413.42 546.16 412.03 C 548.57 412.37 551.04 415.00 552.80 412.01 C 551.92 412.12 550.16 412.35 549.28 412.46 C 548.77 411.37 548.24 410.30 547.67 409.25 C 549.66 408.40 551.69 407.42 552.80 405.43 C 550.06 406.88 547.11 406.90 544.39 405.45 C 544.78 403.31 545.17 401.18 545.56 399.05 C 539.66 400.27 540.77 393.69 537.89 390.98 C 538.17 390.03 538.49 389.10 538.84 388.18 C 538.08 387.18 537.35 386.17 536.67 385.12 C 534.66 384.79 533.07 383.54 531.68 382.14 C 532.66 381.20 533.75 380.94 534.82 381.88 C 534.76 380.62 535.32 379.79 536.50 379.39 C 536.11 378.71 535.33 377.35 534.93 376.67 C 523.90 373.58 512.45 372.08 501.00 371.98 M 364.06 386.70 C 364.24 394.55 354.34 399.23 354.83 407.63 C 352.63 408.57 350.45 409.60 348.17 410.34 L 348.84 411.53 C 346.16 412.06 344.44 416.20 342.19 418.22 C 343.37 418.64 344.57 419.08 345.76 419.51 C 348.26 417.52 351.27 416.02 353.04 413.24 C 353.66 414.28 354.28 415.32 354.90 416.36 C 359.55 417.64 363.86 413.74 365.55 409.68 C 367.02 409.88 368.50 410.08 369.99 410.28 C 371.01 409.45 372.29 408.80 372.74 407.47 C 373.27 407.47 374.33 407.48 374.86 407.48 C 375.89 406.43 377.12 405.79 378.53 405.56 C 378.75 407.93 376.18 410.80 378.39 412.68 C 376.49 415.28 373.50 418.07 374.27 421.56 C 372.22 422.09 369.91 423.06 368.66 424.92 C 368.28 424.75 367.52 424.42 367.14 424.25 C 367.33 425.06 367.71 426.68 367.90 427.49 L 366.52 427.19 C 366.83 428.12 366.78 429.00 366.08 429.75 C 369.18 431.71 371.63 429.97 374.85 429.73 C 372.59 431.22 371.56 433.75 370.61 436.15 C 370.18 436.29 369.32 436.57 368.89 436.71 C 368.20 438.83 366.11 440.21 365.96 442.54 C 364.60 442.91 363.30 443.42 362.44 444.60 C 362.60 446.21 363.13 448.26 360.66 448.31 C 362.33 450.06 361.11 452.66 361.95 454.77 C 361.44 454.70 360.42 454.57 359.91 454.51 C 360.54 459.03 359.07 461.64 355.93 464.79 L 354.72 464.31 C 354.72 464.84 354.71 465.92 354.70 466.46 C 353.12 467.11 351.59 467.88 350.06 468.62 C 350.30 469.38 350.56 470.15 350.82 470.92 L 349.47 470.67 C 349.72 471.69 349.71 472.73 349.44 473.79 L 350.54 473.04 C 350.66 473.84 350.91 475.45 351.03 476.26 C 350.46 476.46 349.30 476.86 348.72 477.06 C 349.15 480.98 345.12 478.75 342.79 478.70 C 343.20 476.68 347.11 478.69 344.13 476.73 C 344.12 474.16 342.35 471.12 340.85 468.70 C 341.59 468.71 343.06 468.74 343.80 468.75 C 344.58 466.14 351.36 466.25 354.91 464.12 C 353.14 464.04 351.94 463.10 351.30 461.30 C 349.96 461.27 348.62 461.27 347.30 461.29 C 345.93 456.86 344.50 452.45 343.12 448.03 C 342.35 448.09 340.80 448.22 340.03 448.28 C 338.45 447.06 337.15 445.17 335.02 444.99 C 338.89 446.16 344.02 459.41 337.39 454.17 C 337.06 454.64 336.74 455.10 336.43 455.58 C 336.73 455.90 337.32 456.54 337.62 456.86 C 337.08 456.93 336.00 457.07 335.46 457.14 C 335.58 458.04 335.43 458.91 334.93 459.69 C 335.26 459.99 335.93 460.57 336.26 460.86 C 331.75 458.52 335.80 464.51 336.14 466.31 C 335.31 465.75 333.65 464.62 332.82 464.06 C 333.25 465.16 334.09 467.36 334.52 468.46 C 335.56 468.33 337.64 468.06 338.67 467.92 C 337.54 469.13 336.92 470.65 336.46 472.22 C 335.71 470.69 334.93 469.40 333.44 471.03 C 332.08 469.12 330.54 467.38 328.98 465.66 C 328.23 465.61 326.72 465.52 325.97 465.48 C 325.91 463.77 326.68 462.39 328.08 461.44 C 329.40 462.14 330.91 463.70 332.13 461.94 C 330.34 459.95 326.98 459.00 326.60 456.12 C 325.59 455.53 324.74 454.71 323.93 453.88 C 322.77 454.11 321.62 454.35 320.47 454.60 C 319.87 456.10 319.57 457.68 319.46 459.30 C 318.33 457.46 318.65 454.17 315.94 453.94 C 316.29 452.98 316.64 452.02 316.98 451.06 C 315.44 451.23 313.93 451.55 312.88 452.80 C 312.54 452.41 311.85 451.61 311.51 451.21 C 310.80 452.54 309.66 453.26 308.06 453.38 C 308.66 452.45 309.84 450.59 310.43 449.66 C 306.95 449.70 307.83 453.49 305.57 454.62 C 305.38 455.29 305.02 456.63 304.83 457.30 C 304.41 456.74 303.58 455.61 303.16 455.05 L 302.37 456.53 C 301.76 454.94 301.08 453.39 300.38 451.84 C 295.16 468.44 293.58 486.04 293.08 503.38 C 316.71 503.38 340.33 503.37 363.96 503.38 C 364.21 473.84 374.50 444.56 392.71 421.31 C 391.88 421.70 390.23 422.49 389.40 422.88 C 390.53 421.55 390.55 418.93 392.51 418.43 C 393.03 416.89 393.95 415.51 394.29 413.92 C 393.77 414.39 392.74 415.33 392.22 415.80 L 391.54 414.29 C 390.15 414.85 389.95 415.66 390.95 416.73 C 387.61 416.97 389.62 421.00 386.86 421.81 C 386.22 423.01 385.32 423.94 383.83 423.77 C 383.28 424.13 382.18 424.85 381.63 425.22 C 382.35 423.14 383.24 421.10 383.69 418.94 C 381.30 420.14 380.61 423.06 379.09 425.11 C 379.40 421.29 380.33 417.57 381.03 413.81 C 383.63 413.67 384.15 410.45 385.62 408.78 C 384.43 407.10 384.79 405.02 384.73 403.10 C 385.63 403.01 387.44 402.82 388.34 402.73 C 387.78 404.52 388.12 406.32 388.72 408.06 C 389.29 407.54 390.44 406.52 391.02 406.00 C 393.33 406.96 395.90 407.72 397.78 405.52 C 394.46 401.94 390.93 398.57 387.56 395.05 C 386.50 396.25 385.57 397.68 383.94 398.17 C 383.74 399.22 383.40 400.23 382.91 401.20 C 382.53 400.82 381.75 400.06 381.37 399.69 C 381.96 398.27 382.80 397.00 384.05 396.09 C 382.99 395.37 381.93 394.64 380.88 393.91 C 386.65 390.68 377.75 386.45 375.74 383.27 C 370.95 377.01 369.85 387.73 364.06 386.70 M 445.08 383.64 C 439.89 386.00 448.40 388.15 445.08 383.64 M 382.57 385.77 C 385.71 391.30 386.93 383.42 382.57 385.77 M 414.29 392.11 C 410.77 395.06 417.27 394.02 414.29 392.11 M 552.73 405.33 C 554.23 407.41 556.91 408.02 559.18 408.96 C 558.27 406.34 554.69 406.65 552.73 405.33 M 396.92 421.54 C 377.68 444.05 367.43 473.86 367.09 503.38 C 389.04 503.38 410.99 503.36 432.93 503.39 C 433.26 493.24 435.67 483.10 440.47 474.13 C 437.77 474.52 435.06 474.84 432.34 475.00 C 431.02 472.94 429.59 470.84 427.12 470.13 C 427.86 470.04 429.36 469.85 430.11 469.76 C 429.14 468.35 428.10 466.98 427.06 465.64 C 428.05 465.74 430.03 465.93 431.02 466.03 C 430.18 465.07 429.31 464.15 428.39 463.29 C 429.66 462.81 430.79 462.04 431.89 461.26 C 432.51 462.77 433.84 464.19 432.71 465.97 C 433.25 465.46 434.33 464.42 434.86 463.91 C 434.91 464.36 435.01 465.27 435.06 465.72 C 438.64 465.07 443.78 464.67 442.74 469.81 C 445.36 465.99 448.07 462.21 451.27 458.84 C 447.76 455.25 444.10 451.81 440.69 448.13 C 433.50 454.15 424.47 446.22 417.72 451.78 C 416.37 451.32 414.98 451.83 413.64 451.95 C 413.51 451.52 413.25 450.66 413.12 450.23 C 411.95 450.84 410.78 450.95 409.81 449.90 C 408.83 450.14 407.84 450.38 406.85 450.61 C 405.85 455.86 398.55 453.01 397.60 457.43 C 396.64 457.82 395.69 458.23 394.76 458.65 C 391.66 462.66 387.90 459.78 390.64 455.30 C 390.05 455.02 388.86 454.45 388.26 454.16 C 388.41 453.33 388.71 451.66 388.86 450.82 C 390.20 447.46 392.76 444.68 393.53 441.12 C 394.85 439.50 397.33 441.76 398.04 439.57 C 397.03 439.53 395.02 439.45 394.01 439.41 C 395.87 438.12 397.68 435.54 400.24 436.90 L 399.93 436.01 C 399.27 436.09 397.94 436.27 397.27 436.36 C 397.93 435.93 399.25 435.06 399.91 434.63 L 398.98 432.67 C 400.69 433.37 402.44 434.05 404.21 434.64 C 403.37 432.99 401.16 433.37 399.77 432.65 C 400.55 432.39 402.09 431.87 402.87 431.60 L 401.87 430.11 C 402.20 429.92 402.87 429.53 403.20 429.34 C 405.19 428.24 407.20 428.44 408.39 431.00 L 407.16 428.01 C 407.53 428.46 408.27 429.36 408.64 429.81 C 410.62 429.11 411.60 426.88 413.93 426.78 C 413.62 426.13 413.00 424.84 412.69 424.19 C 411.30 427.84 410.07 425.68 409.78 422.96 C 410.97 422.20 412.26 422.10 413.64 422.66 C 412.33 418.29 407.55 415.82 404.73 412.30 C 402.00 415.26 399.03 418.08 396.92 421.54 M 481.78 443.59 C 451.51 452.02 430.94 484.86 436.90 515.79 C 438.41 516.27 439.95 516.38 441.51 516.11 C 441.10 515.63 440.29 514.68 439.88 514.20 C 441.89 512.70 444.47 513.11 446.55 514.23 C 446.70 514.99 447.00 516.50 447.15 517.26 C 443.39 518.37 444.66 522.89 443.78 525.82 C 442.41 525.97 441.05 526.12 439.69 526.28 C 440.78 529.18 441.92 532.07 443.57 534.71 C 445.55 531.77 448.48 530.27 452.02 530.54 C 449.63 530.16 447.48 529.14 445.49 527.83 C 446.97 526.89 448.44 525.96 449.89 524.99 C 449.35 524.53 448.26 523.62 447.71 523.17 C 449.01 522.71 450.34 522.56 451.72 522.72 C 451.92 522.03 452.31 520.66 452.51 519.97 C 452.13 519.47 451.37 518.46 450.99 517.96 C 451.44 517.45 452.35 516.45 452.80 515.95 C 451.17 515.96 449.55 516.07 447.95 516.27 C 448.62 514.71 448.55 512.64 450.14 511.64 L 449.86 511.07 L 447.19 512.92 C 448.15 511.37 448.96 509.75 449.62 508.06 C 444.06 509.60 450.52 506.37 449.02 503.58 C 449.43 503.63 450.23 503.74 450.64 503.80 C 450.77 503.02 451.04 501.47 451.18 500.69 C 452.61 500.88 454.04 501.08 455.48 501.29 C 454.28 502.65 453.03 503.97 451.88 505.38 C 453.70 505.55 455.51 505.74 457.33 505.94 C 456.23 507.99 455.17 510.19 452.91 511.20 C 453.58 511.54 454.90 512.22 455.57 512.55 C 456.11 515.64 456.65 518.91 459.44 520.81 C 459.25 522.28 459.10 523.77 458.98 525.27 C 460.04 525.36 461.10 525.46 462.17 525.57 C 462.38 526.11 462.78 527.17 462.98 527.70 C 462.06 528.93 461.14 530.15 460.19 531.37 C 460.73 531.66 461.81 532.26 462.35 532.56 C 458.36 534.80 453.88 533.45 449.61 533.20 C 448.95 536.16 445.49 534.37 443.41 534.78 C 444.52 536.75 445.70 538.69 446.91 540.61 C 447.53 540.52 448.77 540.34 449.38 540.25 C 449.86 542.28 451.87 541.86 453.50 541.96 C 453.26 540.36 453.00 538.77 452.73 537.18 C 454.27 537.95 455.82 538.72 457.37 539.51 C 458.88 538.52 460.40 537.52 461.96 536.59 C 462.07 535.58 462.19 534.59 462.32 533.59 C 464.18 533.26 466.03 532.88 467.91 532.59 C 467.69 532.24 467.24 531.53 467.02 531.17 C 467.62 531.10 468.82 530.95 469.42 530.88 C 469.11 530.54 468.48 529.86 468.16 529.51 C 468.86 528.30 469.55 527.09 470.30 525.92 C 470.81 526.58 471.81 527.91 472.32 528.57 C 470.89 524.88 472.88 523.37 476.43 524.70 C 476.20 522.77 477.19 522.42 479.43 523.64 C 479.94 523.31 480.96 522.65 481.46 522.32 C 481.16 521.46 480.55 519.73 480.24 518.86 C 479.78 518.75 478.85 518.52 478.39 518.41 C 479.08 515.39 478.89 512.23 479.22 509.16 C 480.71 508.25 482.21 507.37 483.80 506.66 C 483.45 508.55 481.89 511.13 484.80 511.73 C 483.59 512.90 482.41 514.10 481.25 515.31 C 484.18 517.00 485.34 513.70 487.73 513.76 C 488.02 512.63 488.36 511.52 488.72 510.42 C 486.18 506.94 484.31 502.85 483.76 498.57 C 483.58 499.18 483.23 500.40 483.06 501.01 C 480.48 500.60 479.91 503.59 478.70 505.20 C 476.32 506.30 474.51 504.60 472.92 503.04 C 473.25 502.13 473.57 501.22 473.91 500.32 L 472.36 499.82 C 472.68 499.39 473.31 498.52 473.63 498.08 C 471.50 495.37 473.08 491.77 472.80 488.65 C 473.49 488.68 474.87 488.75 475.56 488.78 C 475.51 488.27 475.39 487.23 475.34 486.71 C 476.06 486.61 477.51 486.40 478.23 486.29 C 483.95 479.75 485.04 474.40 489.83 466.66 C 489.43 465.02 489.16 463.32 488.20 461.91 C 488.56 461.76 489.29 461.45 489.66 461.29 C 488.78 466.40 493.55 461.67 493.22 459.41 C 492.62 459.45 491.40 459.52 490.79 459.55 C 492.01 459.04 493.09 457.32 494.55 458.81 L 494.01 457.17 C 495.26 456.80 496.50 456.42 497.72 455.97 C 497.57 455.47 497.27 454.46 497.11 453.95 C 498.07 454.27 499.03 454.59 500.00 454.93 C 500.19 453.43 500.40 451.95 500.64 450.46 C 501.56 450.98 502.48 451.50 503.42 452.02 C 503.67 451.34 504.18 449.98 504.44 449.30 C 506.20 449.72 507.98 450.10 509.75 450.55 C 509.03 451.12 507.58 452.25 506.86 452.82 C 507.65 453.15 508.45 454.35 509.35 453.22 C 510.72 453.49 511.64 452.83 512.10 451.24 C 512.22 451.87 512.47 453.12 512.59 453.75 C 517.88 451.50 524.21 453.38 529.01 456.21 C 528.59 458.00 528.11 459.77 527.60 461.55 C 523.70 461.78 519.81 462.17 515.91 462.24 C 517.05 463.01 518.35 463.68 519.10 464.91 C 519.70 464.96 520.90 465.05 521.50 465.10 C 520.99 467.25 522.68 468.74 523.90 470.24 C 525.64 470.48 527.38 470.77 529.13 471.07 C 529.14 470.51 529.16 469.40 529.18 468.84 C 527.60 468.51 525.08 468.84 525.99 466.35 C 528.08 466.45 530.18 466.54 532.25 466.13 C 531.34 465.15 530.42 464.18 529.53 463.20 C 530.01 461.31 530.52 459.43 531.11 457.58 C 532.04 457.73 533.90 458.02 534.83 458.16 C 532.95 455.25 531.54 452.00 529.11 449.48 C 529.51 449.26 530.31 448.81 530.70 448.58 C 515.77 440.86 497.94 438.60 481.78 443.59 M 536.62 452.31 C 531.53 447.83 534.18 456.92 536.62 452.31 M 501.56 472.13 C 501.45 472.83 501.24 474.22 501.14 474.92 C 501.35 475.46 501.78 476.55 501.99 477.10 C 500.77 480.07 499.19 483.82 495.86 484.80 C 496.02 487.53 496.09 490.28 496.22 493.03 C 498.21 493.25 499.37 494.91 500.69 496.24 C 499.24 498.53 499.98 501.06 496.31 501.49 C 496.72 505.16 497.15 508.78 495.94 512.39 C 495.27 512.39 493.94 512.37 493.28 512.36 C 492.95 513.46 492.63 514.57 492.32 515.69 C 490.97 515.74 489.63 515.77 488.30 515.75 C 487.76 516.51 486.69 518.04 486.15 518.80 L 486.42 516.56 C 484.61 516.74 482.87 517.28 481.13 517.74 C 481.98 519.73 483.39 520.49 485.35 520.01 C 485.34 520.43 485.32 521.27 485.31 521.68 C 487.38 520.51 489.63 519.74 491.91 519.11 C 490.49 520.74 492.68 521.34 493.44 522.32 C 494.54 518.99 498.62 518.45 501.15 516.49 C 501.67 516.87 502.71 517.64 503.23 518.02 C 504.76 517.73 506.12 517.28 506.17 515.46 C 509.36 512.43 505.38 508.38 507.36 504.82 C 509.06 504.20 507.91 502.19 507.41 501.11 C 507.77 499.91 507.93 498.61 508.85 497.68 C 508.72 498.46 508.47 500.01 508.34 500.79 L 510.17 500.10 C 509.74 500.54 508.87 501.43 508.43 501.88 C 509.68 503.44 511.36 504.63 513.09 505.63 C 513.49 503.88 513.30 502.11 513.12 500.36 C 510.66 501.17 510.57 498.41 509.71 496.94 C 512.13 494.72 515.02 493.37 518.37 493.70 C 518.43 493.29 518.53 492.47 518.58 492.06 C 519.78 491.47 521.00 490.90 522.21 490.32 C 520.69 489.97 518.88 490.17 517.97 488.65 C 514.80 490.73 511.56 492.71 508.45 494.88 C 508.18 492.88 505.93 493.13 504.52 492.46 C 504.97 489.33 503.53 486.54 502.21 483.82 C 504.03 480.32 505.92 476.85 507.72 473.34 C 506.37 470.82 503.69 469.95 501.56 472.13 M 481.49 483.27 L 481.64 483.88 C 484.99 484.51 483.91 480.42 481.49 483.27 M 705.65 496.07 C 704.13 504.15 709.47 500.15 705.65 496.07 M 293.08 506.50 C 293.37 559.57 315.12 612.01 352.44 649.73 C 369.15 633.09 385.78 616.37 402.48 599.72 C 378.35 575.07 364.21 541.01 363.96 506.49 C 340.33 506.51 316.71 506.49 293.08 506.50 M 367.08 506.50 C 367.27 540.20 381.18 573.43 404.70 597.51 C 413.85 586.43 429.18 578.60 430.82 563.01 C 430.25 561.87 429.69 560.74 429.13 559.61 C 430.75 559.03 432.39 558.46 434.04 557.94 C 436.01 559.95 438.88 560.01 441.46 560.64 C 444.79 557.50 447.95 554.19 451.21 550.98 C 444.78 544.04 439.73 535.84 436.62 526.89 C 433.89 527.11 433.95 524.04 435.26 522.41 C 433.86 517.21 433.13 511.85 432.93 506.49 C 410.98 506.52 389.03 506.49 367.08 506.50 M 552.75 541.14 C 554.38 538.57 556.04 536.00 557.27 533.21 C 555.28 534.83 549.49 539.09 552.75 541.14 M 557.07 540.70 C 554.12 544.29 551.50 548.16 548.28 551.53 C 549.83 553.00 551.34 554.52 552.86 556.04 C 554.58 555.19 556.32 554.38 558.07 553.58 C 564.67 556.48 574.69 553.91 576.76 546.32 C 575.94 545.36 575.14 544.40 574.34 543.46 C 568.74 542.90 563.27 541.54 557.72 540.68 C 559.64 539.22 560.52 537.08 560.36 534.64 C 559.03 536.52 557.91 538.56 557.07 540.70 M 541.12 541.14 C 541.06 543.04 540.21 544.69 539.18 546.23 C 539.46 547.12 539.75 548.01 540.04 548.91 C 539.49 549.26 538.39 549.96 537.84 550.31 C 538.12 552.22 538.42 554.15 538.41 556.11 C 541.51 552.91 552.83 545.80 546.85 543.82 C 547.91 542.78 549.15 541.76 549.16 540.15 C 547.14 540.47 545.17 541.65 543.09 541.15 C 543.59 540.59 544.58 539.47 545.08 538.91 C 543.42 538.97 542.33 540.20 541.12 541.14 M 684.18 540.86 C 684.23 542.31 684.46 543.77 684.99 545.14 C 684.55 546.80 684.06 548.44 683.60 550.10 C 681.39 550.44 679.20 550.74 676.99 551.03 C 677.78 549.26 678.82 547.58 679.12 545.65 C 678.07 546.58 677.44 547.84 676.77 549.04 C 674.01 547.84 671.55 550.74 669.45 549.01 C 669.05 549.24 668.26 549.70 667.87 549.93 C 667.44 549.60 666.59 548.92 666.16 548.59 C 660.73 557.49 654.33 565.71 644.65 570.25 C 643.28 569.37 641.93 568.45 640.59 567.56 C 639.97 570.01 638.56 572.06 637.02 574.03 C 633.50 576.55 629.08 574.54 625.34 576.50 C 623.02 574.97 620.66 573.52 618.31 572.06 C 617.02 574.25 615.71 576.44 614.33 578.58 C 616.95 581.26 619.99 583.54 623.99 582.94 C 624.31 585.44 626.45 586.64 628.43 587.81 C 628.38 585.95 626.23 583.00 629.19 582.21 C 629.72 584.15 630.25 586.10 630.77 588.06 C 631.42 587.93 632.71 587.68 633.36 587.56 C 634.23 585.10 636.64 583.95 638.58 582.47 C 639.53 578.48 640.80 574.57 641.36 570.50 C 642.28 576.10 648.18 577.09 651.96 573.45 C 653.47 573.89 655.00 574.35 656.53 574.81 C 656.32 577.50 656.13 580.20 655.95 582.91 C 655.54 583.43 654.72 584.46 654.31 584.97 C 654.90 586.25 655.52 587.55 656.12 588.85 C 654.51 590.79 653.28 592.97 653.63 595.60 C 652.82 596.43 652.02 597.27 651.22 598.12 C 651.70 602.88 646.83 605.29 644.51 608.82 C 642.17 617.40 634.36 624.70 627.79 630.97 C 629.41 632.60 631.05 634.21 632.63 635.90 C 637.49 632.54 641.32 628.18 645.47 624.19 C 645.73 625.64 645.97 627.11 646.24 628.59 C 646.40 634.54 643.62 639.97 642.42 645.69 C 644.00 647.15 645.51 648.70 647.05 650.23 C 672.44 624.56 691.05 592.19 700.12 557.23 C 693.74 554.83 689.53 548.97 686.04 543.58 C 685.43 542.66 684.81 541.75 684.18 540.86 M 445.80 561.47 C 447.52 561.79 449.24 562.13 450.97 562.48 C 451.72 559.55 452.63 556.65 453.15 553.67 C 450.66 556.21 447.66 558.40 445.80 561.47 M 537.90 560.25 C 539.43 561.53 540.97 562.80 542.49 564.11 C 539.80 564.64 537.33 565.68 536.12 568.33 C 538.25 567.74 540.40 567.19 542.56 566.70 C 542.85 566.14 543.41 565.02 543.70 564.46 C 543.40 564.08 542.80 563.33 542.50 562.95 C 544.56 562.45 546.63 561.99 548.72 561.56 C 549.51 560.55 550.29 559.55 551.06 558.53 C 549.36 556.94 547.72 555.29 546.07 553.66 C 543.48 556.02 540.77 558.23 537.90 560.25 M 490.60 556.08 C 490.99 557.66 491.39 559.27 491.83 560.86 C 495.53 562.11 497.39 565.56 499.46 568.59 C 504.13 569.06 508.79 568.38 513.38 567.54 C 510.24 565.02 506.09 563.17 502.17 562.57 C 500.54 560.48 498.97 558.36 497.54 556.14 C 496.85 556.78 496.18 557.44 495.50 558.10 C 495.07 556.86 494.64 555.63 494.20 554.42 C 492.99 554.96 491.79 555.52 490.60 556.08 M 475.99 564.23 C 479.85 565.80 483.89 566.81 487.93 567.80 C 486.74 564.36 484.97 561.11 481.07 560.43 C 479.39 561.71 477.69 562.97 475.99 564.23 M 464.08 566.13 C 464.31 567.46 464.55 568.80 464.79 570.14 C 460.01 571.60 454.90 574.42 453.84 579.72 C 454.27 580.15 455.13 581.00 455.56 581.43 C 453.40 581.79 452.76 583.72 452.18 585.50 C 451.64 585.54 450.55 585.62 450.01 585.67 C 449.14 586.60 448.28 587.55 447.41 588.49 C 445.03 587.97 442.66 587.50 440.27 587.13 C 438.95 587.82 437.63 588.49 436.30 589.16 C 435.15 587.23 434.02 585.29 432.83 583.39 C 430.72 583.29 428.61 583.14 426.50 583.01 C 426.71 582.13 427.13 580.36 427.34 579.48 C 420.41 586.12 413.75 593.03 406.92 599.78 C 410.82 603.47 414.85 607.04 419.11 610.34 C 419.85 609.54 420.60 608.74 421.35 607.96 C 419.22 600.62 426.37 597.65 431.88 595.74 C 433.59 592.38 436.86 586.63 439.19 592.85 C 442.54 592.32 444.88 593.75 447.79 594.79 C 454.93 591.40 463.22 587.70 471.20 590.60 C 475.62 587.71 480.94 591.10 485.57 588.10 C 486.66 589.55 487.95 590.65 489.81 589.26 C 489.25 590.34 488.71 591.45 488.21 592.58 C 489.04 593.69 489.87 594.80 490.71 595.91 C 489.42 597.47 488.15 599.05 487.08 600.77 C 490.37 602.71 494.03 604.86 497.97 604.55 C 498.03 599.08 497.98 593.61 498.00 588.14 C 496.30 587.60 494.45 587.11 493.71 585.30 C 495.12 584.96 496.57 584.66 498.00 584.35 C 498.00 580.78 497.98 577.22 498.02 573.66 C 493.85 570.66 488.47 571.53 483.78 570.01 C 483.22 570.76 482.68 571.53 482.14 572.30 C 481.70 571.25 481.27 570.22 480.85 569.19 C 475.11 569.06 468.63 560.61 464.08 566.13 M 527.19 569.15 C 527.78 569.59 528.98 570.46 529.57 570.89 C 527.67 572.61 525.90 570.34 523.90 570.80 C 524.81 572.03 525.76 573.21 526.79 574.36 C 526.59 575.74 526.15 577.08 525.25 578.19 C 526.03 577.53 526.82 576.89 527.62 576.25 C 528.83 576.75 530.04 577.27 531.25 577.80 C 531.07 578.50 530.69 579.88 530.51 580.57 C 529.69 580.33 528.06 579.85 527.25 579.61 C 527.66 580.16 528.47 581.27 528.88 581.83 C 528.39 581.94 527.41 582.17 526.92 582.29 C 527.61 583.47 528.32 584.65 529.07 585.81 C 528.32 586.03 526.81 586.47 526.05 586.69 L 525.80 585.08 C 525.21 585.17 524.01 585.36 523.41 585.46 C 522.85 583.79 519.83 581.30 522.93 580.35 C 519.39 578.55 513.71 575.14 513.66 570.60 C 511.11 571.09 508.54 571.45 505.96 571.68 C 507.86 573.38 511.38 573.36 512.18 576.08 C 510.46 575.22 508.80 574.16 506.80 574.39 C 506.58 575.08 506.15 576.47 505.94 577.16 C 506.76 577.88 507.59 578.59 508.45 579.30 C 505.68 580.30 506.78 584.71 503.56 584.49 C 502.90 585.96 503.83 590.77 500.98 589.16 C 501.12 594.35 500.94 599.54 501.01 604.74 C 502.41 605.00 503.82 605.29 505.23 605.57 C 506.07 606.75 506.91 607.93 507.78 609.10 C 511.70 609.40 515.73 609.58 519.32 611.40 C 520.46 610.54 521.61 609.68 522.76 608.83 C 522.46 607.18 522.17 605.53 521.90 603.89 C 524.77 601.11 529.68 598.02 533.08 601.63 C 539.89 602.05 545.96 601.22 553.20 601.42 C 555.83 599.44 557.91 596.53 561.24 595.68 C 561.95 596.10 562.68 596.51 563.42 596.91 C 565.40 595.70 567.46 594.64 569.45 593.45 C 569.87 588.97 570.40 584.49 570.87 580.02 C 569.07 577.56 567.84 573.45 564.15 573.60 C 562.73 580.10 556.60 577.82 552.05 577.74 C 552.02 578.48 551.95 579.94 551.91 580.68 C 551.35 580.94 550.22 581.46 549.66 581.73 C 548.16 581.11 546.68 580.52 545.19 579.94 C 544.17 580.45 543.32 581.34 542.22 581.64 C 541.64 580.94 541.67 580.04 541.78 579.21 C 540.48 579.08 539.91 578.35 540.09 577.03 C 539.32 576.99 537.77 576.93 537.00 576.90 L 537.00 575.16 C 537.53 575.42 538.59 575.93 539.13 576.19 L 539.07 575.37 C 536.88 574.60 537.52 572.93 538.15 571.25 C 537.08 571.71 536.01 572.16 534.94 572.60 C 535.10 570.76 535.54 568.97 536.07 567.21 C 532.93 566.97 529.84 567.34 527.19 569.15 M 501.06 575.17 C 500.97 578.00 501.00 580.84 501.00 583.67 C 501.83 583.57 503.50 583.36 504.33 583.25 C 506.32 580.27 503.71 576.70 501.06 575.17 M 354.71 652.01 C 392.27 689.37 444.58 711.39 497.59 711.77 C 496.67 711.02 495.73 710.31 494.77 709.64 C 495.55 708.71 496.07 707.67 496.34 706.50 C 496.83 706.45 497.82 706.35 498.32 706.30 C 495.10 704.83 496.90 702.24 497.82 699.79 C 496.34 698.19 494.10 697.78 492.67 696.17 C 488.86 696.67 485.00 696.47 481.18 696.82 C 478.05 693.80 474.71 690.90 470.13 690.74 C 455.01 693.82 440.78 691.07 426.03 689.15 C 415.58 682.90 406.09 675.25 400.40 664.65 C 399.84 664.47 398.71 664.09 398.15 663.91 C 398.97 660.68 394.35 659.74 392.99 657.08 C 395.22 654.15 392.66 652.11 390.72 649.91 C 391.84 649.32 392.98 648.75 394.12 648.18 C 396.19 644.57 396.42 640.63 394.69 636.83 C 395.05 636.32 395.78 635.30 396.14 634.79 C 395.36 633.19 394.59 631.57 393.49 630.17 C 395.20 626.56 398.07 623.05 401.91 621.60 C 402.63 620.10 403.33 618.59 404.03 617.09 C 406.76 616.85 408.25 614.54 409.82 612.61 C 411.81 612.68 413.82 612.75 415.82 612.60 C 413.06 608.40 408.05 605.86 404.73 601.95 C 388.08 618.66 371.36 635.30 354.71 652.01 M 567.38 603.39 C 567.65 603.66 567.65 603.66 567.38 603.39 M 573.59 606.27 C 572.02 605.74 570.44 605.27 568.83 604.92 C 572.25 606.94 574.66 610.14 577.42 612.93 C 579.34 611.51 581.24 610.03 583.16 608.59 C 581.06 607.05 578.90 605.61 576.81 604.08 C 575.14 604.20 573.05 603.87 573.59 606.27 M 579.48 615.30 C 580.39 615.94 581.34 616.31 582.31 616.39 C 581.56 621.72 588.34 619.88 590.47 623.23 C 590.83 625.91 592.46 628.18 593.48 630.65 C 598.61 629.92 601.13 634.66 604.24 637.79 C 609.49 636.63 615.28 637.65 620.30 639.82 C 619.96 640.38 619.30 641.50 618.96 642.06 C 621.11 642.20 623.25 642.54 625.40 642.76 C 626.89 640.98 628.34 639.04 630.53 638.05 C 628.99 636.57 627.50 635.07 626.02 633.56 C 624.88 636.23 621.99 637.16 619.78 638.73 C 617.10 635.63 613.48 632.88 613.48 628.37 C 608.40 625.07 603.42 621.26 597.13 620.93 C 596.26 616.61 592.62 612.54 587.88 613.15 C 587.23 612.21 586.58 611.28 585.94 610.35 C 583.81 612.04 581.65 613.67 579.48 615.30 M 641.48 649.02 C 639.85 653.83 636.50 657.80 634.07 662.21 C 637.86 659.15 641.36 655.76 644.86 652.39 C 643.71 651.27 642.59 650.15 641.48 649.02 Z" />
<path fill="#ffffff" opacity="1.00" d=" M 482.74 306.79 C 478.76 308.74 481.48 303.42 482.74 306.79 Z" />
<path fill="#ffffff" opacity="1.00" d=" M 485.79 311.28 C 487.64 311.62 490.25 310.98 491.40 312.91 C 489.49 312.58 487.28 312.75 485.79 311.28 Z" />
<path fill="#ffffff" opacity="1.00" d=" M 366.78 317.69 C 370.11 316.12 373.30 313.53 377.24 314.61 C 330.80 354.24 292.97 407.22 281.43 468.07 C 268.15 535.11 293.37 605.61 338.52 655.48 C 378.26 699.45 436.46 724.71 495.33 727.35 C 484.05 733.17 471.60 743.05 458.11 738.13 C 360.39 720.45 280.55 637.26 263.66 539.92 C 252.24 474.63 274.05 407.23 312.33 354.38 C 324.00 334.46 348.21 329.18 366.78 317.69 Z" />
<path fill="#ffffff" opacity="1.00" d=" M 622.76 314.61 C 641.87 319.40 659.20 332.16 677.06 341.10 C 720.30 393.02 746.04 462.15 737.77 530.11 C 724.60 633.61 639.16 724.16 535.10 738.86 C 500.45 742.56 463.85 755.32 442.11 784.00 C 436.80 783.98 431.50 784.04 426.19 783.96 C 447.65 754.87 479.54 733.25 514.87 725.19 C 560.45 722.70 604.28 704.03 640.00 676.01 C 690.79 630.77 725.87 564.16 721.81 494.93 C 718.08 423.61 675.95 359.80 622.76 314.61 Z" />
<path fill="#ffffff" opacity="1.00" d=" M 522.27 349.06 C 528.32 348.45 522.39 355.13 522.27 349.06 Z" />
<path fill="#ffffff" opacity="1.00" d=" M 430.44 350.58 C 432.18 350.43 433.90 350.15 435.59 349.70 C 436.73 351.71 437.63 354.43 440.48 354.33 C 438.11 357.15 434.55 358.48 431.26 359.87 C 431.02 359.13 430.54 357.66 430.30 356.92 C 430.22 357.83 430.07 359.66 429.99 360.57 C 429.51 360.39 428.53 360.02 428.05 359.83 C 428.33 363.83 421.50 361.10 426.44 363.88 C 424.56 364.16 422.69 364.40 420.82 364.59 C 422.22 364.93 423.63 365.24 425.06 365.51 C 425.29 366.07 425.74 367.17 425.97 367.72 C 421.63 366.65 412.42 370.78 410.29 369.29 C 409.66 369.50 408.42 369.90 407.79 370.11 C 408.65 367.78 409.64 365.24 412.45 364.81 C 412.26 364.07 411.88 362.60 411.69 361.86 C 412.52 360.32 413.36 358.81 414.20 357.28 C 417.41 357.38 419.30 353.77 422.67 354.32 C 421.44 356.20 420.17 358.05 419.05 360.00 C 421.66 358.60 423.11 355.95 425.12 353.90 C 425.40 354.35 425.96 355.25 426.24 355.70 C 427.75 354.93 429.38 354.61 430.97 355.61 C 429.30 354.07 429.22 352.34 430.44 350.58 Z" />
<path fill="#ffffff" opacity="1.00" d=" M 535.37 352.19 C 530.50 355.24 532.40 346.48 535.37 352.19 Z" />
<path fill="#ffffff" opacity="1.00" d=" M 524.99 352.67 C 525.83 352.72 527.52 352.82 528.36 352.87 C 529.72 353.85 531.00 354.93 532.25 356.06 C 531.09 358.07 528.96 358.24 526.87 358.04 L 527.89 356.51 C 527.30 356.33 526.11 355.96 525.52 355.77 C 525.39 355.00 525.12 353.45 524.99 352.67 Z" />
<path fill="#ffffff" opacity="1.00" d=" M 440.97 359.26 C 441.62 359.23 442.92 359.16 443.56 359.13 C 444.71 361.01 444.87 363.09 442.94 364.54 C 441.85 363.95 441.05 363.16 440.55 362.18 L 441.91 362.00 C 441.57 361.09 441.26 360.18 440.97 359.26 Z" />
<path fill="#ffffff" opacity="1.00" d=" M 435.43 363.17 C 435.03 361.31 436.50 360.60 437.83 359.85 L 437.52 361.17 C 438.40 361.95 439.26 362.80 440.08 363.66 C 438.11 364.70 434.57 364.08 433.86 366.71 C 435.48 366.20 436.86 366.51 438.02 367.66 C 433.07 365.89 434.16 371.75 430.18 368.57 C 430.66 367.84 431.15 367.12 431.65 366.40 C 431.63 365.21 431.62 364.02 431.62 362.83 C 432.09 362.65 433.03 362.29 433.50 362.11 C 433.99 362.38 434.95 362.91 435.43 363.17 Z" />
<path fill="#ffffff" opacity="1.00" d=" M 441.15 366.32 C 446.12 364.84 439.55 370.78 441.15 366.32 Z" />
<path fill="#ffffff" opacity="1.00" d=" M 443.84 367.47 C 447.16 367.73 441.97 370.35 443.84 367.47 Z" />
<path fill="#ffffff" opacity="1.00" d=" M 414.21 373.27 C 416.73 372.00 419.24 370.56 422.05 370.01 C 421.61 370.68 420.73 372.03 420.29 372.70 C 421.22 372.56 423.07 372.27 423.99 372.13 C 423.36 373.44 422.65 374.70 421.93 375.97 C 421.46 375.59 420.52 374.81 420.05 374.43 C 419.60 374.82 418.70 375.61 418.24 376.01 C 417.47 375.90 415.93 375.70 415.16 375.60 C 414.84 374.82 414.52 374.04 414.21 373.27 Z" />
<path fill="#ffffff" opacity="1.00" d=" M 429.64 373.13 C 430.53 372.04 431.95 373.03 433.09 372.84 C 432.93 373.54 432.61 374.95 432.45 375.66 C 430.65 375.67 428.86 375.76 427.07 375.76 C 426.87 373.78 427.54 372.68 429.64 373.13 Z" />
<path fill="#ffffff" opacity="1.00" d=" M 440.63 372.68 C 442.04 372.46 443.45 372.26 444.88 372.09 C 443.34 373.77 441.45 375.60 438.96 375.25 C 440.86 376.95 438.38 380.05 436.26 377.52 C 436.82 377.22 437.95 376.61 438.51 376.31 C 438.22 374.63 439.68 373.75 440.63 372.68 Z" />
<path fill="#ffffff" opacity="1.00" d=" M 424.45 378.74 C 425.68 373.55 430.40 379.94 424.45 378.74 Z" />
<path fill="#ffffff" opacity="1.00" d=" M 430.15 379.27 C 429.93 377.05 432.15 376.91 433.74 376.42 C 433.40 378.11 432.41 379.05 430.77 379.25 C 431.54 381.78 428.18 381.48 426.76 382.50 C 426.43 383.09 425.78 384.27 425.46 384.86 C 427.63 388.02 425.92 391.44 422.08 390.89 C 421.51 389.94 421.35 388.97 422.22 388.13 C 422.05 386.72 421.95 385.31 421.91 383.90 L 423.46 383.92 C 423.36 383.30 423.15 382.05 423.05 381.43 C 423.54 381.05 424.52 380.29 425.00 379.92 C 426.71 379.68 428.43 379.46 430.15 379.27 Z" />
<path fill="#ffffff" opacity="1.00" d=" M 525.49 383.12 C 526.35 382.69 528.09 381.85 528.96 381.43 C 529.73 382.69 530.51 383.96 531.26 385.25 C 529.27 384.72 527.35 383.96 525.49 383.12 Z" />
<path fill="#ffffff" opacity="1.00" d=" M 522.31 386.37 C 523.28 384.12 525.32 384.50 527.37 384.96 C 527.23 385.65 526.97 387.02 526.83 387.71 C 525.54 388.50 524.26 389.30 523.01 390.14 C 520.84 389.34 518.95 388.03 517.31 386.44 C 519.00 385.43 520.67 385.41 522.31 386.37 Z" />
<path fill="#ffffff" opacity="1.00" d=" M 377.91 396.53 C 382.68 396.94 377.34 400.79 377.91 396.53 Z" />
<path fill="#ffffff" opacity="1.00" d=" M 510.41 406.05 C 513.15 404.34 510.57 409.56 510.41 406.05 Z" />
<path fill="#ffffff" opacity="1.00" d=" M 526.63 408.42 C 527.26 408.85 528.53 409.71 529.16 410.14 C 527.79 415.10 528.33 420.14 529.79 425.01 C 530.61 429.64 534.21 432.10 538.77 432.32 C 537.53 433.29 536.30 434.27 535.06 435.22 C 534.45 434.77 533.24 433.86 532.64 433.40 C 531.90 434.46 530.85 434.75 529.64 434.42 C 529.62 433.10 529.62 431.79 529.65 430.48 C 529.25 430.05 528.45 429.20 528.05 428.77 C 528.60 427.08 529.18 425.26 526.40 426.43 C 526.51 424.96 526.60 423.50 526.67 422.04 C 526.10 421.80 524.96 421.31 524.39 421.06 C 524.57 418.99 524.78 416.91 524.75 414.84 C 526.71 413.19 527.12 410.86 526.63 408.42 Z" />
<path fill="#ffffff" opacity="1.00" d=" M 356.92 411.18 C 361.02 409.91 356.04 414.98 356.92 411.18 Z" />
<path fill="#ffffff" opacity="1.00" d=" M 488.50 417.10 C 488.81 417.36 489.42 417.87 489.72 418.12 C 490.48 416.16 492.09 416.79 493.57 417.52 C 493.02 418.73 492.47 419.95 491.92 421.17 C 489.83 421.15 488.30 419.44 486.23 419.48 C 486.80 418.89 487.93 417.70 488.50 417.10 Z" />
<path fill="#ffffff" opacity="1.00" d=" M 239.39 444.32 C 247.55 435.48 255.45 426.34 264.05 417.93 C 258.04 445.95 251.16 474.14 251.25 503.00 C 250.58 553.48 268.96 602.39 294.97 644.99 C 331.54 700.53 394.44 733.74 458.14 747.55 C 453.73 753.25 447.24 757.37 442.02 762.46 C 378.17 747.43 320.76 708.61 282.75 655.20 C 237.59 596.01 224.17 516.36 239.39 444.32 Z" />
<path fill="#ffffff" opacity="1.00" d=" M 735.95 417.93 C 744.55 426.34 752.44 435.48 760.60 444.31 C 775.53 515.19 762.93 593.50 719.32 652.34 C 684.54 701.89 633.62 740.30 575.35 757.49 C 540.51 768.90 502.55 769.17 466.61 765.65 C 473.77 759.63 482.34 755.61 490.96 752.15 C 571.68 753.86 655.09 715.87 702.26 649.22 C 731.25 603.80 751.01 550.48 748.60 495.97 C 747.82 469.50 741.41 443.69 735.95 417.93 Z" />
<path fill="#ffffff" opacity="1.00" d=" M 481.99 420.67 C 483.96 419.37 486.41 423.09 487.59 420.47 C 489.20 421.52 490.59 422.89 491.48 424.63 C 490.85 424.53 489.59 424.35 488.95 424.26 C 488.67 426.80 488.40 429.34 488.06 431.87 C 486.41 430.51 485.27 428.74 484.37 426.84 C 485.42 425.96 486.51 425.12 487.25 423.95 C 485.88 424.05 484.80 424.68 484.00 425.82 C 483.32 424.10 482.64 422.39 481.99 420.67 Z" />
<path fill="#ffffff" opacity="1.00" d=" M 491.03 425.05 C 496.65 425.14 489.50 430.58 491.03 425.05 Z" />
<path fill="#ffffff" opacity="1.00" d=" M 533.37 443.26 C 538.02 441.98 532.40 448.03 533.37 443.26 Z" />
<path fill="#ffffff" opacity="1.00" d=" M 342.51 459.72 C 342.78 457.60 342.93 455.44 343.69 453.44 C 343.84 455.50 343.71 457.58 343.59 459.65 C 343.32 459.66 342.78 459.70 342.51 459.72 Z" />
<path fill="#ffffff" opacity="1.00" d=" M 146.15 484.75 C 149.33 475.19 152.25 465.55 155.59 456.05 C 158.55 465.66 161.78 475.18 164.85 484.75 C 174.81 484.77 184.78 484.71 194.74 484.78 C 186.76 490.71 178.71 496.55 170.62 502.31 C 173.61 511.95 176.82 521.51 179.92 531.11 C 171.77 525.20 163.64 519.25 155.46 513.37 C 147.36 519.32 139.20 525.18 131.08 531.11 C 134.18 521.51 137.39 511.95 140.38 502.31 C 132.28 496.55 124.24 490.71 116.26 484.78 C 126.22 484.71 136.19 484.77 146.15 484.75 Z" />
<path fill="#ffffff" opacity="1.00" d=" M 830.15 484.75 C 833.33 475.19 836.25 465.55 839.59 456.05 C 842.55 465.66 845.78 475.18 848.85 484.75 C 858.81 484.77 868.78 484.71 878.74 484.78 C 870.76 490.70 862.72 496.55 854.62 502.31 C 857.60 511.95 860.82 521.51 863.92 531.11 C 855.80 525.18 847.64 519.32 839.54 513.37 C 831.36 519.25 823.23 525.20 815.08 531.11 C 818.18 521.51 821.39 511.95 824.38 502.31 C 816.28 496.55 808.24 490.70 800.26 484.78 C 810.22 484.71 820.19 484.77 830.15 484.75 Z" />
<path fill="#ffffff" opacity="1.00" d=" M 344.67 481.60 C 345.39 481.03 346.12 480.47 346.85 479.92 C 347.29 480.47 348.17 481.56 348.61 482.11 C 347.37 483.12 345.91 483.74 344.41 484.26 C 344.48 483.59 344.60 482.26 344.67 481.60 Z" />
<path fill="#ffffff" opacity="1.00" d=" M 501.72 504.28 C 502.32 509.89 497.23 505.90 501.72 504.28 Z" />
<path fill="#ffffff" opacity="1.00" d=" M 479.87 574.31 C 480.96 573.85 482.06 573.39 483.16 572.94 C 483.78 573.91 484.40 574.88 485.01 575.88 C 484.91 577.45 484.85 579.04 484.79 580.63 C 483.53 581.14 482.28 581.66 481.03 582.16 C 480.61 579.54 480.23 576.92 479.87 574.31 Z" />
<path fill="#ffffff" opacity="1.00" d=" M 462.59 578.92 C 465.93 575.13 465.37 582.38 462.59 578.92 Z" />
<path fill="#ffffff" opacity="1.00" d=" M 558.96 582.62 C 560.93 581.01 562.99 579.49 564.89 577.79 C 564.56 579.03 564.41 580.29 564.43 581.58 C 563.60 582.35 562.78 583.14 561.97 583.94 C 560.96 583.50 559.96 583.06 558.96 582.62 Z" />
<path fill="#ffffff" opacity="1.00" d=" M 530.84 588.86 C 534.02 588.57 537.57 589.94 540.38 587.90 C 538.98 590.58 531.90 592.18 530.84 588.86 Z" />
<path fill="#ffffff" opacity="1.00" d=" M 502.15 594.17 C 503.00 595.01 503.00 595.01 502.15 594.17 Z" />
<path fill="#ffffff" opacity="1.00" d=" M 198.63 624.48 C 202.13 633.86 204.90 643.51 208.09 653.00 C 218.08 653.01 228.07 652.99 238.06 653.01 C 230.05 658.88 222.06 664.77 213.94 670.48 C 216.68 680.16 220.13 689.63 223.10 699.24 C 214.92 693.46 206.87 687.48 198.75 681.61 C 190.66 687.47 182.64 693.40 174.49 699.17 C 177.39 689.61 180.63 680.17 183.67 670.66 C 175.58 664.78 167.47 658.93 159.42 653.01 C 169.43 652.95 179.45 653.08 189.46 652.94 C 192.44 643.43 195.65 634.00 198.63 624.48 Z" />
<path fill="#ffffff" opacity="1.00" d=" M 786.91 653.00 C 790.10 643.50 792.88 633.86 796.37 624.47 C 799.34 633.99 802.56 643.43 805.54 652.94 C 815.55 653.08 825.57 652.95 835.58 653.01 C 827.52 658.93 819.41 664.78 811.33 670.66 C 814.37 680.17 817.61 689.62 820.51 699.17 C 812.36 693.40 804.34 687.47 796.26 681.61 C 788.13 687.47 780.08 693.46 771.90 699.24 C 774.87 689.63 778.31 680.16 781.06 670.48 C 772.94 664.77 764.95 658.88 756.95 653.01 C 766.93 652.99 776.92 653.01 786.91 653.00 Z" />
<path fill="#ffffff" opacity="1.00" d=" M 507.68 748.36 C 513.66 745.25 520.45 743.80 526.81 741.51 C 528.31 743.14 530.28 744.47 531.21 746.55 C 523.36 747.09 515.54 748.39 507.68 748.36 Z" />
<path fill="#ffffff" opacity="1.00" d=" M 322.63 748.45 C 326.10 757.85 328.91 767.49 332.09 777.00 C 342.08 777.00 352.07 776.99 362.06 777.01 C 354.05 782.88 346.06 788.77 337.94 794.48 C 340.69 804.16 344.13 813.63 347.10 823.24 C 338.92 817.46 330.87 811.47 322.74 805.61 C 314.66 811.47 306.64 817.40 298.49 823.17 C 301.39 813.61 304.63 804.17 307.67 794.66 C 299.59 788.78 291.47 782.93 283.42 777.01 C 293.43 776.95 303.45 777.07 313.46 776.95 C 316.44 767.42 319.66 757.98 322.63 748.45 Z" />
<path fill="#ffffff" opacity="1.00" d=" M 662.91 777.00 C 666.09 767.49 668.91 757.85 672.36 748.44 C 675.33 757.97 678.56 767.42 681.54 776.95 C 691.55 777.07 701.57 776.95 711.58 777.01 C 703.52 782.93 695.41 788.78 687.33 794.66 C 690.37 804.16 693.61 813.61 696.50 823.17 C 688.36 817.40 680.34 811.47 672.25 805.61 C 664.13 811.48 656.08 817.45 647.90 823.24 C 650.87 813.63 654.31 804.16 657.06 794.49 C 648.94 788.77 640.95 782.88 632.95 777.01 C 642.93 776.99 652.92 777.01 662.91 777.00 Z" />
<path fill="#ffffff" opacity="1.00" d=" M 542.44 768.35 C 547.43 767.55 552.44 766.79 557.47 766.21 C 562.43 772.20 567.87 777.79 572.62 783.95 C 567.77 784.05 562.91 783.98 558.06 783.99 C 552.88 778.75 547.33 773.86 542.44 768.35 Z" />
<path fill="#ffffff" opacity="1.00" d=" M 490.66 844.25 C 493.86 834.82 496.53 825.20 500.10 815.92 C 503.24 825.34 506.26 834.80 509.34 844.25 C 519.31 844.24 529.28 844.29 539.26 844.22 C 531.32 850.27 523.13 856.00 515.07 861.91 C 518.17 871.43 521.29 880.95 524.36 890.49 C 516.17 884.70 508.12 878.73 500.00 872.86 C 491.88 878.73 483.83 884.70 475.65 890.49 C 478.71 880.95 481.82 871.43 484.93 861.91 C 476.87 856.00 468.68 850.27 460.74 844.22 C 470.71 844.29 480.69 844.24 490.66 844.25 Z" />
</g>
</svg>
