<svg xmlns="http://www.w3.org/2000/svg" viewBox="0 380 745.77 490">
  <defs>
    <style>
      .cls-1 {
        fill: #fff;
      }
    </style>
  </defs>
  <g id="Layer_2" data-name="Layer 2">
    <g id="Super_Earth" data-name="Super Earth">
      <g id="Lines_underneath" data-name="Lines underneath">
        <path id="short_line" data-name="short line" class="cls-1" d="M496.68,816.7s25.86,14.41,48.47,47.55c0,0,10.29-4.65,11.43-5.56,0-7-38.7-49.4-41.93-48.27Z"/>
        <path id="medium_left" data-name="medium left" class="cls-1" d="M311.88,756.83c-137.31-24.13-289-161.78-257.4-370.4-8.21,3.12-8.72,3.14-12.76,5C13.15,577.79,125.66,720.19,272.38,769.16,278.77,767,301.32,759.55,311.88,756.83Z"/>
        <path id="Long_left" data-name="Long left" class="cls-1" d="M252.57,779.05C128,731,18.19,625,12.19,438.22,4,441.34,4.05,440.59,0,442.48-.73,631.22,123.23,747.57,230.48,793.14,236.77,789.76,240.36,786.56,252.57,779.05Z"/>
        <path id="medium_right" data-name="medium right" class="cls-1" d="M733.91,436.44l11.39,5.76C758.31,687,500.46,873,288,812.19c0,0,11.65-3.94,26.18-7.56A198.09,198.09,0,0,1,357.59,799c38.73.26,82.33-3.37,106.82-10.47,67.28-18.22,149.31-64.84,201.88-137.84C731.34,560.33,734.63,467.71,733.91,436.44Z"/>
        <path id="long_right" data-name="long right" class="cls-1" d="M189.55,859s48.17-97.82,192.29-97.82c206.73-.95,308.83-185.9,314.29-297.83,0-21-3.83-77.1-3.83-77.1l12.24,5.42s4.23,22.08,4.23,59.42c0,170.28-143.62,335.24-335,335.24-106.17,0-150.29,46.47-173.72,78Z"/>
      </g>
    </g>
  </g>
</svg>
